<?xml version="1.0" standalone="no"?>
<!DOCTYPE svg PUBLIC "-//W3C//DTD SVG 20010904//EN"
 "http://www.w3.org/TR/2001/REC-SVG-20010904/DTD/svg10.dtd">
<svg version="1.0" xmlns="http://www.w3.org/2000/svg"
 width="1684.000000pt" height="277.000000pt" viewBox="0 0 1684.000000 277.000000"
 preserveAspectRatio="xMidYMid meet">

<g transform="translate(0.000000,277.000000) scale(0.100000,-0.100000)"
fill="#000000" stroke="none">
<path d="M865 2240 c-4 -6 4 -28 18 -48 38 -58 68 -121 91 -191 12 -36 27 -66
34 -69 17 -5 69 52 75 85 9 49 -14 94 -75 143 -75 60 -135 94 -143 80z"/>
<path d="M1514 2233 c-22 -63 -67 -162 -108 -237 l-47 -86 -410 0 c-225 0
-409 -4 -409 -8 0 -5 13 -21 29 -36 28 -27 31 -28 81 -17 57 12 487 15 493 4
2 -5 1 -63 -1 -130 l-4 -123 -271 0 -271 0 33 -34 c31 -32 34 -33 74 -23 46
11 411 16 422 6 7 -7 -22 -245 -31 -260 -3 -5 -159 -9 -347 -9 l-342 0 35 -35
c33 -33 38 -34 70 -25 19 6 154 10 303 10 l267 0 -6 -27 c-12 -51 -93 -214
-138 -277 -89 -124 -249 -250 -451 -352 -113 -57 -130 -86 -27 -48 402 150
601 326 707 627 l28 77 63 0 64 0 0 -280 c0 -195 4 -287 12 -305 24 -54 45
-57 354 -56 155 1 296 6 313 11 43 12 83 38 104 66 18 24 18 25 -16 57 -38 36
-51 78 -63 210 -6 66 -9 77 -25 77 -17 0 -19 -9 -20 -92 0 -126 -11 -183 -39
-213 l-23 -25 -224 0 -224 0 -24 25 -25 24 0 251 0 250 345 0 c190 0 345 3
345 6 0 4 -32 42 -72 86 l-71 79 -61 -60 -62 -61 -323 0 -323 0 5 28 c3 16 11
76 18 135 l13 107 338 0 c186 0 338 3 338 8 -1 4 -29 38 -64 76 l-63 70 -60
-52 -60 -52 -209 0 -210 0 3 88 c2 48 6 106 9 130 l5 42 380 0 c208 0 379 3
379 7 0 4 -33 40 -72 80 l-72 73 -56 -55 -56 -55 -179 2 -180 3 95 97 c52 53
110 103 128 111 l33 14 -70 57 c-61 49 -72 55 -77 39z"/>
<path d="M13970 2194 c-30 -30 -72 -69 -92 -85 l-38 -30 -43 30 -44 30 5 -347
c4 -308 3 -351 -12 -387 l-17 -39 36 -35 35 -36 80 80 80 80 0 -33 c0 -110
-61 -285 -142 -404 -52 -77 -53 -78 -69 -57 -21 28 -55 124 -75 214 -13 55
-17 155 -21 475 l-5 404 33 28 33 28 -44 47 c-25 26 -47 50 -48 53 -2 3 -16
-10 -31 -27 l-27 -33 -288 0 -287 0 -54 35 -55 35 0 -518 c0 -662 -14 -819
-94 -1077 -33 -107 -35 -125 -16 -125 14 0 73 121 108 221 72 205 91 358 99
817 l6 343 37 -36 c36 -35 37 -35 71 -21 19 8 55 17 82 21 l47 7 0 -91 0 -91
-43 0 c-33 0 -55 8 -85 30 l-42 30 0 -350 0 -350 45 22 c42 20 45 25 45 60 0
38 0 38 40 38 l40 0 0 -144 0 -144 -72 -16 c-40 -9 -98 -21 -128 -27 -86 -16
-85 -14 -43 -64 20 -25 42 -45 49 -45 6 0 38 12 70 26 33 14 131 50 219 80
186 62 171 67 211 -63 14 -45 29 -85 34 -88 14 -8 39 23 51 65 11 35 9 44 -15
93 -25 52 -148 207 -165 207 -19 0 -18 -16 4 -61 14 -27 25 -52 25 -57 0 -5
-19 -12 -42 -15 -24 -4 -58 -9 -75 -13 l-33 -7 0 137 0 136 40 0 c36 0 40 -3
40 -25 l0 -24 45 17 45 16 0 227 0 227 28 21 27 20 -45 45 c-24 25 -49 46 -56
46 -6 0 -19 -11 -28 -25 -13 -20 -25 -25 -56 -25 l-40 0 0 90 0 89 110 3 111
3 -42 57 -42 57 -47 -34 -48 -35 -186 0 -186 0 0 95 0 95 290 0 290 0 0 -379
c0 -416 11 -548 55 -688 75 -237 276 -416 560 -499 109 -32 256 -37 318 -11
40 17 45 31 22 64 -20 29 -42 130 -50 235 -5 62 -11 88 -20 88 -9 0 -16 -20
-20 -57 -3 -32 -12 -96 -18 -143 l-12 -85 -62 1 c-152 2 -359 95 -495 222 -27
25 -48 49 -48 55 0 5 25 35 56 66 62 63 107 134 146 232 46 115 58 208 58 460
0 140 4 230 10 234 5 3 15 15 20 25 9 17 3 23 -57 54 l-68 34 3 -243 4 -243
-55 -31 c-30 -17 -57 -31 -61 -31 -3 0 -5 131 -4 291 l3 292 105 63 c58 35
115 64 128 64 31 0 28 10 -16 53 l-38 37 -54 -56z m-750 -784 l0 -200 -40 0
-40 0 0 200 0 200 40 0 40 0 0 -200z m170 0 l0 -200 -40 0 -40 0 0 200 0 200
40 0 40 0 0 -200z"/>
<path d="M15838 2163 l-87 -87 -40 27 c-22 15 -43 27 -46 27 -3 0 -5 -161 -5
-358 0 -310 -2 -361 -16 -380 -18 -26 -12 -38 38 -74 l29 -20 75 78 75 79 -5
-75 c-8 -130 -80 -306 -169 -414 l-24 -29 -26 56 c-15 31 -37 93 -49 139 -20
77 -22 111 -25 508 l-4 425 31 21 31 21 -47 52 -47 52 -31 -30 -32 -31 -285 0
c-219 0 -289 3 -304 13 -11 7 -36 23 -55 34 l-35 22 4 -436 c5 -636 -16 -888
-94 -1146 -33 -109 -36 -137 -16 -137 13 0 86 166 119 270 61 193 77 334 88
820 l7 291 36 -35 36 -35 59 20 c96 33 100 29 104 -73 l3 -88 -48 0 c-38 0
-57 7 -88 31 l-40 30 -3 -342 c-1 -188 0 -344 3 -347 3 -3 26 4 50 16 41 20
45 25 45 57 0 34 1 35 40 35 l40 0 0 -143 0 -144 -122 -27 c-68 -14 -131 -26
-140 -26 -27 0 -22 -17 21 -62 l38 -41 69 28 c38 15 141 52 229 81 117 39 162
50 167 41 5 -7 20 -49 34 -94 33 -104 46 -116 74 -71 45 71 2 176 -123 297
-59 56 -73 46 -35 -24 22 -41 26 -56 16 -60 -14 -5 -127 -25 -140 -25 -4 0 -8
61 -8 135 l0 135 40 0 c36 0 40 -2 40 -25 0 -29 2 -29 55 -6 l40 18 -3 224 -4
224 31 23 31 23 -52 48 -53 49 -20 -29 c-17 -24 -27 -29 -62 -29 l-43 0 0 90
0 90 115 0 116 0 -42 55 c-23 30 -45 55 -50 55 -5 0 -28 -13 -51 -30 l-41 -30
-184 0 -183 0 0 95 0 95 285 0 285 0 0 -337 c0 -580 32 -760 164 -932 118
-153 286 -258 492 -307 90 -21 227 -22 278 0 43 18 43 17 6 120 -14 39 -23 95
-27 163 -5 86 -9 103 -22 103 -14 0 -19 -21 -29 -118 -7 -64 -16 -130 -19
-146 l-6 -29 -71 6 c-163 14 -372 113 -489 232 l-47 48 58 61 c76 80 124 161
162 274 37 112 49 225 50 471 0 175 1 186 22 208 l21 23 -66 30 c-37 16 -69
30 -71 30 -3 0 -2 -108 1 -239 l6 -239 -54 -28 c-30 -16 -57 -30 -61 -32 -5
-2 -8 128 -8 290 l1 293 100 58 c55 33 112 62 127 66 35 10 32 19 -15 58 l-39
32 -86 -86z m-708 -753 l0 -200 -40 0 -40 0 0 200 0 200 40 0 40 0 0 -200z
m160 0 l0 -200 -40 0 -40 0 0 200 0 200 40 0 40 0 0 -200z"/>
<path d="M5828 1610 l3 -630 -26 -26 c-25 -25 -27 -25 -121 -18 -90 6 -96 6
-92 -12 2 -13 16 -21 45 -26 72 -12 143 -64 143 -104 0 -22 13 -17 58 22 76
65 72 23 72 701 0 542 2 611 16 631 9 13 14 25 13 27 -5 4 -109 65 -112 65 -1
0 -1 -283 1 -630z"/>
<path d="M7730 1608 c0 -348 -4 -638 -8 -644 -18 -27 -52 -34 -142 -27 -86 6
-92 5 -89 -12 3 -14 19 -21 60 -30 70 -14 103 -35 127 -81 l18 -35 42 31 c23
16 42 27 42 23 0 -15 -38 -205 -42 -208 -5 -5 -295 14 -387 25 -229 29 -328
66 -409 154 -55 61 -85 117 -109 209 -14 53 -17 138 -20 568 l-4 507 26 21 27
21 -48 44 -49 45 -28 -34 -29 -35 -214 0 -214 0 -47 34 -48 34 0 -511 c0 -615
-14 -789 -87 -1075 -15 -62 -18 -86 -9 -95 7 -7 14 -7 20 -1 16 16 79 208 101
310 53 245 61 333 67 807 l6 447 219 0 218 0 0 -452 c0 -544 9 -627 84 -783
100 -209 283 -295 691 -325 174 -12 362 -13 369 -1 3 5 -6 33 -21 62 -24 46
-28 64 -28 146 0 68 -3 93 -12 93 -7 0 -13 5 -13 11 0 6 6 20 13 32 9 17 13
173 18 642 3 341 7 628 10 638 3 13 -10 26 -48 48 l-53 31 0 -634z"/>
<path d="M11678 1503 c3 -602 1 -745 -10 -778 l-13 -40 -138 1 c-113 1 -137
-2 -135 -13 2 -8 33 -24 69 -36 79 -27 137 -68 151 -108 12 -36 20 -36 85 1
37 21 60 43 75 73 23 42 23 45 28 587 l5 545 24 -80 c114 -384 311 -715 542
-912 l73 -61 19 25 c24 30 91 62 130 63 49 0 29 27 -50 64 -42 20 -104 56
-138 80 -76 55 -202 188 -276 292 -62 86 -159 251 -159 270 0 6 78 65 173 132
200 139 234 160 286 176 l38 11 -61 67 -62 68 -44 -62 c-52 -71 -174 -197
-279 -286 l-73 -64 -44 95 c-74 164 -96 247 -101 377 l-4 115 35 25 c19 14 32
28 28 32 -5 5 -171 78 -177 78 0 0 1 -332 3 -737z"/>
<path d="M4280 1737 c0 -617 -16 -828 -84 -1095 -20 -78 -21 -94 -9 -103 7 -7
15 -10 17 -8 9 10 68 182 86 249 11 41 32 140 46 220 25 140 26 162 31 623 l5
477 218 0 218 0 5 -482 c5 -551 11 -602 86 -754 93 -187 259 -278 571 -314
125 -14 439 -25 473 -16 l26 6 -27 52 c-23 44 -28 67 -30 149 -3 70 -8 99 -17
103 -10 3 -17 -11 -25 -52 -7 -31 -17 -82 -24 -112 l-12 -55 -94 3 c-128 5
-366 29 -449 47 -122 25 -178 52 -240 114 -65 66 -102 136 -126 241 -15 64
-18 147 -22 559 l-5 483 28 29 28 29 -44 45 c-24 25 -47 45 -50 45 -3 0 -16
-16 -29 -35 l-24 -35 -215 0 -215 0 -48 35 -49 35 0 -483z"/>
<path d="M5175 2198 c-4 -9 -31 -33 -61 -54 -53 -37 -54 -37 -91 -22 l-38 14
3 -154 c2 -103 -1 -165 -9 -184 -10 -25 -8 -32 14 -61 l25 -33 88 83 c48 46
92 82 98 80 5 -2 16 -22 23 -44 13 -38 12 -45 -6 -80 -36 -71 -120 -181 -207
-273 -58 -60 -84 -94 -77 -101 6 -6 31 6 72 36 63 46 63 46 85 27 18 -16 31
-19 84 -14 l63 4 -3 -63 -3 -64 -133 2 c-139 2 -140 2 -104 -40 9 -10 23 -15
34 -11 23 7 40 -30 68 -148 11 -45 23 -85 28 -90 15 -15 41 3 52 35 14 45 -1
90 -50 149 l-41 48 75 0 76 0 0 -133 0 -134 -122 -18 c-68 -10 -125 -19 -127
-21 -4 -4 58 -112 68 -118 5 -3 13 5 18 17 9 18 40 32 159 70 82 26 191 57
242 69 70 17 92 26 92 39 0 15 -9 15 -117 -2 -65 -10 -121 -18 -125 -19 -5 0
-8 56 -8 125 l0 125 55 0 c65 0 65 2 29 -112 -29 -92 -29 -91 -16 -96 5 -1 33
29 62 68 29 39 61 76 71 84 18 12 17 14 -18 39 l-38 27 63 0 63 0 -42 50 -41
49 -38 -30 c-33 -26 -44 -30 -91 -27 l-54 3 -3 63 -3 62 76 0 c85 0 86 1 26
70 l-31 35 -24 -27 c-25 -28 -27 -28 -146 -28 -66 0 -120 3 -120 7 0 4 39 47
86 94 l86 87 67 -46 c36 -26 99 -80 139 -120 83 -84 102 -87 102 -18 0 74 -55
120 -229 191 l-54 22 26 18 27 17 -47 30 c-27 17 -50 32 -52 34 -2 1 6 15 18
30 44 56 23 110 -72 185 -63 50 -79 39 -38 -27 17 -26 31 -51 31 -55 0 -8
-112 -79 -124 -79 -3 0 -6 52 -6 115 l0 114 63 19 c34 11 77 23 95 27 17 3 32
10 32 13 0 4 -16 25 -34 47 -28 33 -36 37 -41 23z"/>
<path d="M7069 2184 c-13 -14 -44 -37 -67 -51 -42 -25 -45 -25 -78 -10 l-34
17 6 -148 c6 -120 4 -154 -9 -183 -15 -36 -14 -38 11 -73 l26 -37 35 40 c40
45 141 131 153 131 4 0 8 -6 8 -12 0 -7 7 -26 15 -42 15 -27 14 -32 -16 -85
-47 -82 -134 -196 -215 -278 -103 -106 -78 -113 55 -16 23 17 24 17 38 -4 12
-18 21 -20 78 -15 l65 5 0 -68 0 -68 -130 6 c-71 4 -130 3 -130 -1 0 -18 47
-52 63 -46 16 6 33 -39 76 -203 13 -48 32 -55 55 -21 32 45 12 119 -44 173
-17 16 -30 32 -30 37 0 4 32 8 70 8 l70 0 0 -134 0 -133 -117 -17 c-65 -10
-121 -18 -125 -19 -4 -1 9 -31 29 -65 l36 -64 21 26 c23 28 170 80 374 132 84
22 112 33 112 45 0 14 -8 14 -82 3 -46 -7 -100 -16 -120 -19 l-38 -5 0 125 0
125 55 0 c64 0 63 7 19 -124 -33 -95 -17 -117 31 -45 15 23 45 61 66 84 l40
43 -33 24 -33 23 59 5 58 5 -39 45 -40 45 -40 -28 c-30 -21 -51 -27 -91 -27
l-52 0 0 65 0 65 70 0 c39 0 70 3 70 6 0 9 -63 94 -70 94 -4 0 -17 -11 -30
-25 -23 -24 -28 -25 -147 -25 l-124 0 87 94 88 94 60 -41 c34 -22 100 -78 148
-125 83 -80 87 -83 98 -62 7 13 9 37 4 63 -9 59 -53 96 -174 148 -55 24 -100
47 -100 51 0 4 9 10 20 13 19 6 28 25 13 25 -5 0 -18 8 -31 18 l-23 18 47 48
c54 57 100 147 109 217 7 48 7 49 42 49 l36 0 -7 -112 c-10 -157 -7 -151 -72
-143 -66 8 -73 -10 -16 -40 23 -12 38 -29 40 -42 4 -30 23 -29 61 2 40 34 48
67 55 214 5 107 9 128 26 146 l21 22 -36 32 c-43 38 -52 38 -67 6 -11 -25 -13
-25 -131 -25 l-120 0 24 -26 c17 -18 31 -24 51 -22 26 4 28 2 28 -28 0 -48
-45 -182 -79 -236 -16 -25 -28 -49 -25 -52 2 -3 -1 -2 -7 3 -8 6 -6 17 6 35
22 34 23 87 2 119 -22 34 -123 110 -136 103 -5 -4 6 -31 25 -63 l34 -57 -60
-38 c-32 -21 -62 -38 -65 -38 -3 0 -4 53 -3 118 l3 117 92 24 92 24 -31 43
c-17 24 -32 44 -33 44 -1 0 -12 -12 -26 -26z"/>
<path d="M10225 2188 c-112 -59 -401 -137 -675 -182 -218 -36 -237 -36 -291 1
-24 16 -48 32 -54 35 -7 4 -9 -200 -7 -605 2 -602 2 -612 -18 -639 l-20 -28
49 -68 50 -69 63 61 c73 71 225 176 383 266 61 34 111 63 113 64 1 2 0 10 -3
18 -5 12 -52 -5 -236 -88 -127 -57 -239 -106 -250 -109 -19 -6 -19 1 -19 329
l0 336 253 0 252 0 18 -87 c23 -111 76 -273 118 -355 103 -205 278 -373 467
-447 44 -18 79 -25 217 -46 17 -3 26 -2 20 3 -5 4 -20 29 -33 56 -32 68 -44
181 -34 318 7 80 6 115 -2 120 -6 4 -12 5 -14 4 -2 -2 -18 -62 -37 -132 -19
-71 -39 -146 -45 -166 l-11 -37 -57 25 c-123 54 -224 139 -303 256 -79 116
-152 292 -193 461 l-6 27 347 0 347 0 -74 75 -74 75 -51 -50 -51 -50 -225 0
-226 0 -7 70 c-13 147 -19 370 -9 370 5 0 77 11 159 26 82 14 191 28 242 32
l92 7 -57 72 c-32 40 -60 72 -63 72 -3 0 -23 -9 -45 -21z m-441 -230 c3 -13 7
-100 10 -195 4 -95 9 -179 12 -187 5 -14 -22 -16 -245 -16 l-251 0 0 185 0
185 23 1 c12 0 110 11 217 23 107 13 203 24 212 25 11 1 19 -8 22 -21z"/>
<path d="M3098 1511 c3 -380 2 -701 -2 -715 l-6 -26 -230 0 -230 0 0 435 0
436 28 24 c15 13 25 25 22 27 -8 7 -152 68 -159 68 -3 0 -5 -214 -3 -475 l3
-474 -31 -28 -31 -28 54 -53 54 -53 32 40 33 41 536 -2 537 -3 3 -72 c2 -40 6
-73 10 -73 4 1 27 11 51 24 l44 23 -2 494 -2 494 35 34 36 34 -85 39 c-47 21
-86 38 -87 38 -2 0 -1 -223 1 -495 l3 -495 -256 0 -256 0 0 649 0 650 35 27
36 27 -86 38 c-46 22 -86 39 -88 39 -1 0 -1 -310 1 -689z"/>
<path d="M5526 2170 l-17 -30 -116 0 -115 0 15 -22 c11 -18 24 -23 52 -22 l37
1 -7 -46 c-10 -69 -42 -160 -76 -215 -42 -68 -23 -78 33 -18 63 68 90 123 113
235 4 22 11 27 35 27 l30 0 0 -104 c0 -58 -5 -117 -10 -132 -10 -25 -13 -26
-60 -20 -60 8 -67 -8 -18 -39 26 -17 37 -29 55 -63 1 -2 15 4 32 14 51 30 65
73 71 220 4 118 7 134 26 150 l21 19 -41 37 -42 37 -18 -29z"/>
<path d="M16317 2165 c-27 -34 -30 -35 -95 -35 -55 0 -76 6 -121 30 -30 17
-55 30 -55 30 -1 0 -1 -312 -1 -694 l0 -693 50 24 50 25 -3 614 -4 614 76 0
76 0 0 -405 0 -405 -33 0 c-17 0 -47 4 -65 9 -53 16 -41 -19 18 -51 33 -18 52
-36 56 -53 8 -31 23 -32 59 -3 54 42 55 53 55 485 l0 398 30 25 31 25 -48 47
-48 48 -28 -35z"/>
<path d="M14145 1495 l0 -693 48 24 47 24 0 616 0 615 73 -3 72 -3 0 -400 0
-400 -33 -3 c-19 -2 -47 1 -63 7 -26 9 -29 8 -29 -10 0 -11 10 -23 23 -28 33
-13 87 -60 87 -77 0 -33 62 2 88 50 15 27 17 77 20 436 l3 405 27 28 27 29
-45 39 c-25 21 -48 39 -52 39 -4 0 -17 -13 -30 -30 -21 -28 -26 -30 -91 -30
-59 0 -78 5 -121 29 l-51 30 0 -694z"/>
<path d="M4670 1994 c-38 -27 -176 -74 -216 -74 -16 0 -24 -6 -24 -18 0 -16 8
-17 65 -14 l65 4 0 -126 0 -126 -36 0 c-20 0 -51 9 -69 20 l-32 20 0 -289 -1
-289 34 20 c24 14 34 27 34 44 0 21 5 24 35 24 l36 0 -3 -157 -3 -158 -90 -14
c-49 -8 -91 -16 -93 -17 -2 -1 9 -26 24 -56 l27 -55 46 28 c25 15 93 44 150
64 103 35 120 35 121 2 0 -5 7 -33 16 -62 17 -61 34 -64 61 -11 22 42 19 104
-7 157 -46 90 -140 199 -140 162 0 -5 12 -41 26 -81 16 -42 23 -76 18 -81 -5
-5 -26 -11 -46 -14 l-38 -6 0 150 0 149 30 0 c28 0 30 -3 30 -35 0 -41 4 -42
47 -15 l33 20 -7 200 -6 200 24 26 24 26 -39 34 -40 34 -21 -20 c-12 -11 -33
-20 -48 -20 l-27 0 0 130 0 129 52 16 c28 8 62 15 75 15 32 0 29 10 -14 52
l-38 36 -35 -24z m-110 -585 l0 -170 -32 3 -33 3 -3 168 -2 167 35 0 35 0 0
-171z m130 1 l0 -170 -30 0 -30 0 0 170 0 170 30 0 30 0 0 -170z"/>
<path d="M6591 2006 c-19 -23 -96 -55 -179 -75 -48 -11 -78 -23 -80 -32 -2
-12 9 -14 63 -11 l65 4 0 -126 0 -126 -32 0 c-18 0 -48 9 -66 20 -18 11 -33
20 -35 20 -1 0 -2 -130 -2 -289 l0 -289 38 21 c26 14 37 27 37 44 0 19 5 23
30 23 l30 0 0 -158 0 -158 -70 -12 c-39 -7 -82 -12 -95 -12 l-25 0 30 -61 c29
-57 33 -60 49 -45 32 29 276 126 286 114 1 -2 10 -34 20 -71 10 -37 22 -70 26
-72 12 -8 48 45 55 82 9 47 -8 99 -56 170 -60 89 -85 117 -98 109 -9 -5 -8
-17 4 -44 9 -20 22 -56 29 -80 12 -40 12 -42 -8 -46 -12 -3 -34 -7 -49 -11
l-28 -5 0 150 0 150 35 0 c33 0 35 -2 35 -36 0 -20 3 -34 8 -32 4 2 19 10 35
17 l27 14 0 212 c0 203 1 213 21 226 20 14 19 15 -21 54 l-42 40 -15 -22 c-11
-16 -25 -23 -49 -23 l-34 0 0 130 0 129 41 11 c23 6 59 15 81 18 l39 7 -44 43
c-37 37 -46 41 -56 28z m-131 -596 l0 -170 -30 0 -30 0 0 170 0 170 30 0 30 0
0 -170z m140 0 l0 -170 -35 0 -35 0 0 170 0 170 35 0 35 0 0 -170z"/>
<path d="M5635 1544 c0 -228 1 -414 3 -414 2 0 21 10 42 23 l40 22 0 342 c0
340 0 342 22 357 26 18 28 16 -47 54 l-60 30 0 -414z"/>
<path d="M7545 1545 l0 -413 37 19 38 19 0 343 c0 331 1 343 20 355 11 7 20
16 20 20 0 4 -26 22 -57 39 l-58 32 0 -414z"/>
<path d="M11423 1710 l-28 -40 -240 0 -240 0 36 -35 c34 -35 37 -36 80 -26 24
6 117 11 206 11 l161 0 -23 -82 c-57 -204 -135 -385 -232 -540 -66 -105 -173
-246 -222 -292 -30 -29 -41 -56 -22 -56 20 0 133 95 208 173 152 162 289 401
372 652 36 111 42 122 75 140 20 11 35 23 33 26 -5 12 -118 109 -126 109 -6 0
-22 -18 -38 -40z"/>
<path d="M9634 859 c-3 -6 9 -27 28 -47 57 -60 103 -122 153 -204 30 -52 53
-78 65 -78 23 0 50 66 50 124 0 65 -33 98 -154 155 -125 60 -134 63 -142 50z"/>
</g>
</svg>
