<?xml version="1.0" standalone="no"?>
<!DOCTYPE svg PUBLIC "-//W3C//DTD SVG 20010904//EN"
 "http://www.w3.org/TR/2001/REC-SVG-20010904/DTD/svg10.dtd">
<svg version="1.0" xmlns="http://www.w3.org/2000/svg"
 width="440.000000pt" height="429.000000pt" viewBox="0 0 440.000000 429.000000"
 preserveAspectRatio="xMidYMid meet">

<g transform="translate(0.000000,429.000000) scale(0.100000,-0.100000)"
fill="#000000" stroke="none">
<path d="M1366 4141 c-40 -27 -55 -57 -56 -113 0 -50 31 -101 70 -113 19 -6
20 -17 20 -286 l0 -279 -93 0 c-117 0 -173 -18 -230 -74 -58 -56 -77 -113 -77
-233 l0 -93 -279 0 c-269 0 -280 1 -286 20 -3 10 -20 31 -36 45 -57 47 -162
28 -195 -37 -21 -40 -14 -120 12 -149 22 -25 74 -49 105 -49 35 0 88 31 106
61 l17 29 278 0 278 0 0 -145 0 -145 -273 0 -274 0 -31 40 c-48 59 -109 69
-181 31 -52 -28 -69 -136 -29 -186 23 -29 74 -55 109 -55 35 0 88 31 106 61
l17 29 278 0 279 0 -3 -142 -3 -143 -269 -3 -269 -2 -34 39 c-52 62 -118 74
-181 33 -79 -51 -64 -191 25 -228 52 -22 99 -11 146 37 l39 38 271 1 272 1 0
-143 0 -143 -272 -3 -272 -2 -18 30 c-17 30 -84 70 -116 70 -36 0 -87 -30
-107 -62 -36 -59 -20 -146 32 -180 63 -41 129 -29 181 33 l34 39 269 -2 269
-3 3 -142 3 -143 -279 0 -278 0 -17 29 c-18 30 -71 61 -106 61 -71 0 -131 -58
-131 -127 0 -86 48 -133 134 -133 48 0 99 32 111 70 6 19 17 20 286 20 l279 0
0 -94 c0 -144 35 -219 128 -273 42 -25 58 -28 160 -32 l112 -3 0 -278 c0 -268
-1 -279 -20 -285 -38 -12 -70 -63 -70 -111 0 -86 47 -134 133 -134 68 0 127
58 127 125 0 40 -29 93 -61 112 l-29 17 0 278 0 279 143 -3 142 -3 3 -275 2
-275 -29 -17 c-40 -22 -62 -59 -63 -105 -1 -83 51 -133 138 -133 120 0 166
167 64 235 l-30 20 0 278 0 278 143 -3 142 -3 3 -271 2 -270 -39 -32 c-50 -40
-66 -86 -51 -141 32 -121 215 -123 251 -2 16 52 -1 99 -51 143 -25 23 -37 42
-35 54 2 11 4 133 4 272 l1 252 139 0 c135 0 139 -1 145 -23 3 -12 6 -134 6
-271 l0 -249 -44 -41 c-73 -67 -70 -160 6 -206 105 -64 230 26 198 142 -10 34
-59 88 -81 88 -6 0 -8 109 -7 277 l3 278 143 3 142 3 0 -279 0 -278 -28 -16
c-16 -10 -37 -35 -47 -57 -24 -54 -14 -104 30 -148 28 -28 40 -33 79 -33 87 0
137 48 138 131 0 46 -22 84 -63 107 l-29 17 2 275 3 275 110 5 c97 4 115 8
157 33 45 26 80 64 109 117 8 15 16 71 19 135 l5 110 277 3 c268 2 277 2 283
-17 12 -39 63 -71 111 -71 86 0 134 47 134 133 0 68 -58 127 -125 127 -40 0
-93 -29 -112 -61 l-17 -29 -278 0 -279 0 3 142 3 143 271 3 270 2 32 -39 c82
-103 232 -59 232 68 0 135 -147 186 -232 80 l-32 -39 -270 2 -271 3 -3 143 -3
142 278 0 278 0 28 -35 c53 -67 147 -69 202 -4 36 44 36 125 -1 168 -54 65
-150 60 -206 -10 l-32 -39 -270 2 -271 3 -3 143 -3 142 279 0 279 0 13 -24 c7
-14 31 -35 54 -47 55 -29 107 -20 153 26 28 28 33 40 33 79 0 59 -21 101 -62
122 -67 34 -142 14 -176 -47 l-17 -29 -275 2 -275 3 -3 143 -3 142 279 0 278
0 17 -29 c19 -32 72 -61 112 -61 67 0 125 59 125 127 0 86 -48 133 -134 133
-48 0 -99 -32 -111 -70 -6 -19 -17 -20 -286 -20 l-279 0 0 93 c0 111 -11 153
-53 209 -51 67 -111 92 -237 98 l-105 5 -3 268 -2 267 45 43 c41 40 45 48 45
91 0 93 -52 142 -142 134 -28 -3 -57 -13 -69 -24 -25 -22 -49 -74 -49 -105 0
-35 31 -88 61 -106 l29 -17 0 -278 0 -279 -142 3 -143 3 -3 271 -2 271 36 28
c108 82 60 235 -73 235 -68 0 -133 -62 -133 -127 0 -32 40 -99 70 -116 l30
-18 -2 -272 -3 -272 -142 -3 -143 -3 0 279 0 279 25 13 c25 14 65 83 65 113 0
36 -30 87 -62 107 -59 36 -146 20 -180 -32 -41 -63 -29 -129 33 -181 l39 -34
-2 -269 -3 -269 -142 -3 -143 -3 0 279 0 278 29 17 c30 18 61 71 61 106 0 35
-26 86 -55 109 -50 40 -158 23 -186 -29 -38 -72 -28 -133 31 -181 l40 -31 0
-274 0 -273 -145 0 -145 0 0 278 0 278 29 17 c33 19 61 72 61 115 0 35 -36 92
-70 109 -37 19 -101 16 -134 -6z m1228 -93 c14 -23 -18 -68 -48 -68 -55 0 -73
74 -24 97 25 12 53 0 72 -29z m-1110 0 c20 -57 -57 -93 -90 -43 -15 23 -15 27
0 51 24 36 76 31 90 -8z m370 0 c20 -57 -57 -93 -90 -43 -15 23 -15 27 0 51
24 36 76 31 90 -8z m368 7 c9 -19 7 -29 -6 -50 -23 -34 -64 -31 -85 7 -14 24
-14 28 3 47 27 30 73 28 88 -4z m734 4 c17 -19 17 -23 3 -47 -18 -33 -54 -40
-80 -16 -21 19 -24 36 -9 65 14 26 62 25 86 -2z m-86 -1142 l0 -302 -51 -62
c-50 -61 -52 -63 -89 -57 -48 8 -106 -19 -131 -60 -65 -107 44 -237 160 -190
60 24 85 70 78 142 -6 55 -5 57 39 108 77 91 74 74 74 417 l0 307 90 0 c105 0
140 -13 167 -63 17 -30 18 -79 18 -672 l0 -640 -213 -3 c-123 -1 -229 2 -251
8 -21 5 -72 36 -113 69 -72 57 -74 59 -70 97 7 75 -74 152 -147 139 -96 -18
-142 -119 -91 -203 30 -49 82 -68 142 -52 l47 12 68 -55 c109 -86 89 -81 373
-87 l255 -5 3 -142 3 -143 -213 0 -213 1 -20 32 c-13 21 -35 37 -63 47 -144
50 -243 -156 -112 -234 16 -9 50 -16 76 -16 43 0 51 4 91 45 l43 45 203 -2
202 -3 3 -73 c4 -101 -20 -155 -82 -182 -42 -19 -65 -20 -488 -18 l-443 3 -5
130 c-3 72 -10 139 -17 150 -6 11 -44 52 -83 90 -39 39 -78 82 -86 97 -10 20
-14 68 -14 192 l0 165 30 16 c38 20 60 63 60 119 0 111 -139 165 -219 85 -57
-57 -53 -131 10 -191 l39 -37 0 -166 c0 -126 4 -174 15 -203 9 -20 55 -76 103
-125 l87 -87 0 -118 0 -117 -142 -3 -143 -3 0 88 c0 127 -11 157 -83 230 l-61
63 -1 66 c0 63 -2 67 -37 100 -32 28 -45 34 -84 34 -80 0 -134 -51 -134 -127
0 -82 71 -141 154 -129 40 6 43 5 101 -54 l60 -61 0 -102 0 -102 -270 0 c-239
0 -274 2 -302 18 -65 35 -63 10 -63 717 l0 640 138 0 137 0 16 -28 c46 -81
181 -75 225 9 35 69 4 155 -67 183 -61 25 -136 0 -164 -54 l-16 -30 -134 0
-135 0 0 145 0 145 275 0 276 0 37 -39 c60 -63 134 -67 191 -10 55 54 53 129
-4 186 -28 28 -40 33 -79 33 -58 0 -101 -21 -121 -60 l-16 -30 -279 0 -280 0
0 91 c0 101 13 134 60 163 25 14 94 16 674 16 l646 0 0 -129 c0 -71 -5 -142
-10 -156 -6 -15 -31 -52 -57 -82 -36 -42 -52 -54 -72 -53 -62 4 -83 -1 -117
-33 -66 -60 -53 -166 27 -209 41 -22 68 -23 114 -4 53 23 77 69 72 139 -5 57
-4 58 42 115 27 31 53 67 60 79 7 14 11 79 11 177 0 135 2 155 16 158 9 2 75
2 145 0 l129 -3 0 -302z m-2512 30 c18 -14 14 -52 -8 -72 -31 -28 -74 -10 -78
32 -5 51 43 73 86 40z m1507 -21 c7 -22 5 -30 -13 -48 -18 -18 -26 -20 -48
-13 -41 15 -49 51 -19 80 29 30 65 22 80 -19z m2215 4 c25 -47 -43 -91 -82
-52 -15 15 -19 27 -14 47 12 48 71 51 96 5z m-1712 -216 c38 -26 20 -94 -25
-94 -25 0 -53 30 -53 56 0 19 32 54 50 54 3 0 16 -7 28 -16z m-2020 -130 c47
-33 9 -107 -46 -88 -37 13 -43 65 -10 88 28 20 28 20 56 0z m1210 0 c26 -18
28 -50 5 -76 -20 -22 -41 -23 -65 -1 -25 22 -23 59 4 77 12 9 25 16 28 16 3 0
16 -7 28 -16z m2507 -9 c30 -29 31 -39 5 -65 -24 -24 -47 -25 -72 -3 -25 22
-23 59 4 77 30 21 35 20 63 -9z m-1321 -171 c24 -24 20 -61 -9 -80 -23 -15
-27 -15 -50 0 -29 19 -32 51 -8 78 20 22 46 23 67 2z m-2396 -190 c30 -21 29
-59 -3 -80 -54 -36 -103 29 -58 78 20 22 32 23 61 2z m3708 8 c20 -13 32 -47
23 -69 -11 -30 -45 -38 -74 -19 -30 20 -32 49 -5 76 21 21 38 25 56 12z
m-2055 -102 c29 -16 25 -65 -6 -86 -23 -15 -27 -15 -50 0 -29 19 -32 51 -8 78
18 20 36 23 64 8z m477 -56 c47 -33 9 -107 -46 -88 -33 11 -43 62 -17 88 20
20 35 20 63 0z m-2126 -221 c25 -22 23 -59 -4 -77 -28 -20 -43 -20 -62 0 -20
20 -20 58 0 78 20 21 43 20 66 -1z m3718 -3 c11 -11 20 -27 20 -35 0 -18 -35
-55 -53 -55 -22 0 -57 31 -57 51 0 23 34 59 55 59 8 0 24 -9 35 -20z m-2462
-226 c37 -26 20 -94 -24 -94 -53 0 -75 64 -32 94 12 9 25 16 28 16 3 0 16 -7
28 -16z m-1256 -141 c26 -23 23 -59 -7 -79 -23 -15 -27 -15 -50 0 -44 29 -28
95 24 96 8 0 23 -7 33 -17z m2362 1 c24 -24 20 -61 -9 -80 -23 -15 -27 -15
-50 0 -42 28 -24 96 25 96 10 0 26 -7 34 -16z m1356 -4 c26 -26 25 -36 -4 -65
-20 -20 -30 -23 -48 -16 -34 12 -46 55 -23 81 23 25 49 26 75 0z m-2595 -1120
c22 -24 14 -65 -16 -80 -45 -25 -94 51 -57 88 18 18 53 14 73 -8z m370 0 c37
-41 -8 -102 -59 -79 -31 14 -40 47 -20 76 18 28 55 30 79 3z m371 -5 c19 -29
11 -63 -19 -74 -53 -20 -93 28 -63 74 22 33 60 33 82 0z m370 0 c30 -45 -9
-95 -59 -76 -14 6 -28 19 -32 31 -9 30 19 70 50 70 15 0 31 -10 41 -25z m364
5 c26 -26 25 -36 -5 -65 -29 -30 -39 -31 -65 -5 -24 24 -25 47 -3 72 21 24 48
23 73 -2z"/>
</g>
</svg>
