<?xml version="1.0" standalone="no"?>
<!DOCTYPE svg PUBLIC "-//W3C//DTD SVG 20010904//EN"
 "http://www.w3.org/TR/2001/REC-SVG-20010904/DTD/svg10.dtd">
<svg version="1.0" xmlns="http://www.w3.org/2000/svg"
 width="503.000000pt" height="552.000000pt" viewBox="0 0 503.000000 525.000000"
 preserveAspectRatio="xMidYMid meet">

<g transform="translate(0.000000,552.000000) scale(0.100000,-0.100000)"
fill="#000000" stroke="none">
<path d="M2380 5424 c-164 -30 -282 -79 -347 -144 -47 -48 -63 -96 -63 -191 0
-146 -79 -499 -112 -499 -12 0 -101 45 -173 88 -76 45 -161 109 -251 189 -106
94 -158 109 -272 79 -277 -74 -591 -429 -592 -669 0 -57 21 -97 97 -183 80
-92 140 -171 185 -246 40 -68 88 -164 88 -177 0 -25 -244 -85 -408 -101 -64
-6 -140 -13 -169 -16 -95 -10 -166 -89 -218 -242 -103 -303 -14 -745 164 -819
18 -8 90 -18 160 -23 174 -13 248 -26 395 -73 37 -12 70 -27 73 -34 10 -27
-123 -247 -216 -358 -158 -188 -165 -203 -141 -314 61 -285 418 -611 671 -614
69 0 107 21 223 123 43 39 109 90 146 115 73 48 239 140 244 134 9 -12 38 -98
55 -166 27 -107 41 -197 51 -334 9 -129 20 -160 75 -208 186 -163 643 -183
885 -38 99 60 129 118 130 250 0 75 23 233 46 317 24 87 55 180 60 180 3 0 28
-12 57 -26 128 -65 252 -150 386 -268 94 -81 131 -93 232 -71 251 52 536 330
605 590 30 109 12 160 -94 278 -81 90 -184 240 -236 343 l-35 72 57 21 c126
46 245 68 424 81 142 10 181 23 228 77 168 191 186 666 34 894 -49 75 -94 107
-157 113 -29 3 -105 10 -169 16 -122 12 -238 36 -346 71 -60 20 -63 23 -57 48
16 70 143 262 266 403 102 118 113 155 83 271 -78 303 -466 629 -706 593 -38
-6 -60 -19 -123 -74 -137 -119 -276 -214 -398 -273 -56 -28 -57 -27 -87 70
-34 108 -61 260 -70 392 -9 142 -18 167 -81 223 -91 83 -233 126 -434 131 -77
2 -151 2 -165 -1z m303 -19 c217 -38 357 -133 357 -242 0 -80 -49 -138 -162
-191 -116 -56 -176 -66 -363 -67 -147 0 -181 3 -248 23 -132 38 -229 98 -263
163 -22 43 -18 110 9 150 90 134 403 211 670 164z m-610 -403 c48 -34 116 -63
202 -89 49 -15 95 -18 245 -18 182 1 186 1 279 33 108 37 192 89 227 141 l24
36 0 -52 c0 -144 76 -436 155 -594 71 -142 182 -306 248 -368 14 -13 23 -29
21 -36 -3 -7 4 -15 15 -18 11 -3 29 -20 40 -38 85 -140 -107 -497 -518 -964
-111 -125 -426 -443 -473 -476 l-27 -20 -123 115 c-134 125 -348 349 -348 364
0 5 7 15 15 22 8 7 15 17 15 23 0 6 -11 1 -23 -12 l-24 -22 -54 63 c-214 247
-388 501 -454 666 -34 84 -44 186 -22 228 8 16 44 61 79 99 208 231 345 523
393 837 8 54 15 117 15 140 l0 43 25 -37 c14 -21 44 -50 68 -66z m-749 -66
c39 -16 81 -68 91 -113 3 -17 1 -58 -5 -92 -45 -250 -344 -553 -598 -606 -218
-46 -294 121 -166 366 147 280 507 516 678 445z m2605 -24 c329 -138 610 -562
489 -735 -85 -120 -336 -53 -546 148 -219 207 -317 456 -224 566 14 18 40 38
57 46 45 20 142 9 224 -25z m-2304 -210 c57 -38 193 -113 225 -124 12 -4 3
-28 -42 -119 -166 -334 -408 -575 -743 -742 -101 -50 -112 -52 -118 -25 -17
64 -174 305 -255 390 l-35 37 42 -11 c95 -24 266 42 412 160 194 157 335 403
315 549 l-6 44 73 -59 c39 -33 99 -78 132 -100z m1978 105 c-17 -170 160 -441
390 -596 109 -74 250 -119 329 -106 l42 7 -47 -52 c-62 -69 -159 -214 -208
-312 -45 -89 -32 -87 -158 -23 -279 140 -498 340 -658 600 -51 83 -129 242
-122 249 2 2 34 17 70 34 79 38 242 145 312 207 28 25 53 45 54 45 1 0 -1 -24
-4 -53z m-2099 -1052 c97 -251 399 -640 811 -1044 l188 -185 -39 -34 c-189
-167 -460 -361 -609 -436 -167 -84 -270 -95 -343 -38 -34 27 -38 35 -34 66 2
20 0 36 -5 36 -5 0 -7 -14 -5 -32 l5 -32 -34 28 c-195 157 -315 228 -505 301
-133 50 -323 91 -462 98 l-44 2 40 30 c120 90 191 336 171 593 -9 114 -32 200
-76 289 -32 66 -98 143 -123 143 -5 0 10 -18 34 -40 93 -86 145 -233 153 -435
8 -194 -21 -340 -91 -456 -139 -232 -351 -108 -412 242 -48 274 39 603 178
675 16 8 69 17 121 20 351 19 661 131 927 334 41 32 84 68 95 80 l20 22 6 -78
c4 -50 16 -105 33 -149z m2113 175 c60 -55 183 -139 283 -194 196 -106 455
-176 707 -190 97 -6 133 -18 169 -58 156 -171 189 -583 68 -833 -39 -81 -57
-104 -109 -139 -115 -79 -235 17 -306 244 -21 67 -24 94 -24 255 1 198 11 258
66 368 35 70 59 102 101 134 18 12 27 23 20 23 -23 0 -89 -70 -120 -127 -111
-210 -115 -555 -10 -770 30 -61 83 -126 123 -150 17 -10 12 -12 -38 -12 -282
-3 -658 -152 -914 -362 -39 -32 -74 -59 -77 -59 -4 0 -20 -16 -37 -34 -79 -91
-264 -39 -549 153 -120 81 -307 225 -399 307 l-43 39 241 242 c234 233 242
240 256 220 8 -12 15 -17 15 -13 0 5 -7 17 -15 26 -14 15 -10 22 35 74 244
278 437 573 485 739 10 34 15 81 13 113 -1 30 -1 54 1 54 2 0 28 -22 58 -50z
m-922 -1560 c148 -122 334 -251 443 -308 126 -66 189 -86 267 -87 l70 0 -68
-85 c-147 -183 -258 -404 -312 -620 -23 -91 -45 -227 -45 -282 l0 -47 -52 52
c-77 77 -184 122 -345 146 -185 28 -418 -8 -549 -85 -46 -27 -114 -96 -114
-116 0 -7 11 4 24 23 83 121 354 197 607 169 248 -27 419 -131 419 -254 0
-115 -144 -211 -374 -251 -73 -12 -269 -7 -350 10 -99 21 -165 46 -230 90 -78
52 -93 82 -101 200 -25 381 -145 698 -368 972 l-65 80 48 -5 c60 -6 163 24
272 79 139 70 408 263 576 413 l64 57 28 -23 c15 -13 85 -70 155 -128z m-1639
-49 c337 -163 615 -442 765 -769 22 -46 39 -85 39 -87 0 -2 -33 -19 -72 -39
-93 -44 -245 -146 -314 -209 l-54 -49 6 59 c5 47 1 73 -20 137 -45 133 -112
233 -237 351 -89 84 -168 138 -263 179 -60 25 -84 30 -153 31 l-82 0 25 30
c118 146 194 260 234 353 12 29 28 52 34 52 7 0 48 -17 92 -39z m3029 17 c19
-64 146 -261 244 -378 l29 -35 -82 0 c-68 -1 -92 -6 -152 -31 -191 -83 -398
-285 -478 -467 -34 -77 -49 -152 -43 -210 l6 -51 -37 36 c-84 79 -251 190
-358 237 -53 24 -53 24 3 134 131 262 321 479 555 633 94 63 269 154 294 154
7 0 16 -10 19 -22z m-3217 -444 c240 -80 493 -355 542 -587 18 -91 -4 -159
-65 -197 -53 -33 -164 -25 -259 18 -227 105 -436 336 -492 544 -19 73 -18 114
6 163 41 85 131 105 268 59z m3502 5 c70 -39 93 -114 66 -219 -55 -215 -261
-446 -494 -552 -92 -42 -204 -51 -255 -19 -70 43 -90 113 -62 220 39 151 151
311 305 434 168 134 345 189 440 136z" 
 stroke="black" stroke-width="120" />
<path d="M1575 4060 c-17 -7 -15 -9 13 -9 17 -1 32 4 32 9 0 12 -17 12 -45 0z"
 stroke="black" stroke-width="20" />
<path d="M3380 4060 c-24 -8 -23 -8 8 -9 17 -1 32 4 32 9 0 11 -5 11 -40 0z"
 stroke="black" stroke-width="20" />
<path d="M1673 4053 c8 -13 57 -23 57 -12 0 5 -6 9 -14 9 -8 0 -22 3 -32 7
-11 4 -15 3 -11 -4z"
 stroke="black" stroke-width="20" />
<path d="M3275 4034 l-30 -14 30 6 c31 6 41 11 34 18 -2 2 -17 -2 -34 -10z"
 stroke="black" stroke-width="20" />
<path d="M1800 4005 c33 -19 50 -18 26 0 -11 8 -27 15 -35 15 -10 -1 -7 -6 9
-15z"
 stroke="black" stroke-width="20" />
<path d="M3164 3984 c-18 -14 -18 -14 6 -3 31 14 36 19 24 19 -6 0 -19 -7 -30
-16z"
 stroke="black" stroke-width="20" />
<path d="M1880 3972 c0 -10 50 -35 57 -28 3 2 -9 12 -26 21 -17 8 -31 12 -31
7z"
 stroke="black" stroke-width="20" />
<path d="M3066 3935 c-11 -8 -18 -17 -15 -19 2 -3 15 4 29 14 14 11 21 20 15
19 -5 0 -19 -6 -29 -14z"
 stroke="black" stroke-width="20" />
<path d="M1999 3900 c13 -11 27 -20 32 -20 18 0 8 10 -23 25 l-33 16 24 -21z"
 stroke="black" stroke-width="20" />
<path d="M2969 3869 c-19 -16 -20 -18 -4 -10 34 17 51 31 39 31 -7 0 -22 -9
-35 -21z"
 stroke="black" stroke-width="20" />
<path d="M2080 3851 c0 -12 39 -35 46 -28 3 2 -7 12 -21 21 -14 9 -25 12 -25
7z"
 stroke="black" stroke-width="20" />
<path d="M2880 3810 c-14 -11 -20 -20 -15 -19 13 0 50 28 44 33 -2 3 -15 -4
-29 -14z"
 stroke="black" stroke-width="20" />
<path d="M2184 3771 c11 -11 23 -21 28 -21 14 0 -1 19 -25 31 -22 12 -22 12
-3 -10z"
 stroke="black" stroke-width="20" />
<path d="M2785 3740 c-10 -11 -14 -20 -8 -20 5 0 18 9 28 20 10 11 14 20 8 20
-5 0 -18 -9 -28 -20z"
 stroke="black" stroke-width="20" />
<path d="M2275 3700 c10 -11 23 -20 28 -20 6 0 2 9 -8 20 -10 11 -23 20 -28
20 -6 0 -2 -9 8 -20z" 
stroke="black" stroke-width="20" />
<path d="M2699 3670 c-13 -10 -19 -19 -13 -20 6 0 19 9 29 20 23 26 14 26 -16
0z" stroke="black" stroke-width="20" />
<path d="M2367 3629 c12 -12 25 -20 28 -17 3 3 -7 13 -22 23 l-28 17 22 -23z" 
stroke="black" stroke-width="20" />
<path d="M2614 3598 l-19 -21 28 18 c28 18 33 25 19 25 -5 0 -17 -10 -28 -22z" 
stroke="black" stroke-width="20" />
<path d="M2450 3555 c13 -14 26 -23 28 -20 7 7 -29 45 -41 45 -6 0 0 -11 13
-25z" stroke="black" stroke-width="20" />
<path d="M2532 3527 l-22 -23 23 -22 c32 -30 46 -28 17 3 -23 24 -23 25 -5 45
25 28 13 25 -13 -3z" stroke="black" stroke-width="20" />
<path d="M2444 3448 l-19 -21 28 18 c28 18 33 25 19 25 -5 0 -17 -10 -28 -22z" 
stroke="black" stroke-width="20" />
<path d="M2620 3405 c13 -14 26 -25 28 -25 3 0 -5 11 -18 25 -13 14 -26 25
-28 25 -3 0 5 -11 18 -25z" stroke="black" stroke-width="20" />
<path d="M2355 3370 c-10 -11 -14 -20 -8 -20 5 0 18 9 28 20 10 11 14 20 8 20
-5 0 -18 -9 -28 -20z" 
stroke="black" stroke-width="20" />
<path d="M2700 3325 c13 -14 26 -23 28 -20 7 7 -29 45 -41 45 -6 0 0 -11 13
-25z" 
stroke="black" stroke-width="20" />
<path d="M2280 3295 c-13 -14 -19 -25 -13 -25 12 0 48 38 41 45 -2 3 -15 -6
-28 -20z" 
stroke="black" stroke-width="20" />
<path d="M2780 3245 c13 -14 26 -23 28 -20 7 7 -29 45 -41 45 -6 0 0 -11 13
-25z" 
stroke="black" stroke-width="20" />
<path d="M2200 3215 c-13 -14 -19 -25 -13 -25 12 0 48 38 41 45 -2 3 -15 -6
-28 -20z" 
stroke="black" stroke-width="20" />
<path d="M2850 3182 c0 -5 10 -17 22 -28 l21 -19 -18 28 c-18 28 -25 33 -25
19z" 
stroke="black" stroke-width="20" />
<path d="M2121 3128 c-14 -23 -14 -23 8 -4 22 20 25 26 13 26 -4 0 -13 -10
-21 -22z" 
stroke="black" stroke-width="20" />
<path d="M2936 3085 c9 -14 21 -25 27 -25 6 0 0 11 -13 25 -13 14 -25 25 -27
25 -2 0 4 -11 13 -25z" 
stroke="black" stroke-width="20" />
<path d="M1965 2960 c-10 -11 -13 -20 -8 -20 13 0 38 29 31 35 -3 3 -13 -4
-23 -15z" 
stroke="black" stroke-width="20" />
<path d="M1903 2888 c-23 -30 -24 -41 -2 -21 12 12 20 25 17 28 -3 3 -10 0
-15 -7z" 
stroke="black" stroke-width="20" />
<path d="M1827 2792 c-19 -20 -23 -37 -7 -27 10 6 33 45 27 45 -2 0 -11 -8
-20 -18z" 
stroke="black" stroke-width="20" />
<path d="M1757 2702 c-19 -20 -23 -37 -7 -27 10 6 33 45 27 45 -2 0 -11 -8
-20 -18z" 
stroke="black" stroke-width="20" />
<path d="M1686 2605 c-9 -14 -13 -25 -9 -25 12 1 46 50 35 50 -6 0 -17 -11
-26 -25z" 
stroke="black" stroke-width="20" />
<path d="M1626 2514 c-10 -14 -15 -28 -13 -31 3 -2 13 7 23 21 9 15 14 29 12
32 -3 2 -13 -7 -22 -22z" 
stroke="black" stroke-width="20" />
<path d="M1570 2420 c-6 -12 -9 -24 -7 -27 3 -2 11 5 17 17 6 12 9 24 7 27 -3
2 -11 -5 -17 -17z" 
stroke="black" stroke-width="20" />
<path d="M1520 2319 c-6 -11 -10 -25 -7 -32 2 -6 9 3 15 21 12 36 8 42 -8 11z" 
stroke="black" stroke-width="20" />
<path d="M1480 2216 c0 -8 -3 -22 -7 -32 -4 -11 -3 -15 4 -11 13 8 23 57 12
57 -5 0 -9 -6 -9 -14z" 
stroke="black" stroke-width="20" />
<path d="M3086 2915 c9 -14 21 -25 27 -25 6 0 0 11 -13 25 -13 14 -25 25 -27
25 -2 0 4 -11 13 -25z" 
stroke="black" stroke-width="20" />
<path d="M3150 2842 c0 -5 10 -17 21 -28 22 -19 22 -19 10 3 -12 24 -31 39
-31 25z" 
stroke="black" stroke-width="20" />
<path d="M3220 2752 c0 -5 10 -17 21 -28 22 -19 22 -19 10 3 -12 24 -31 39
-31 25z" 
stroke="black" stroke-width="20" />
<path d="M3297 2645 c24 -32 38 -32 17 0 -9 14 -20 25 -26 25 -5 0 -1 -11 9
-25z" 
stroke="black" stroke-width="20" />
<path d="M3351 2575 c-1 -5 8 -21 19 -35 11 -14 20 -20 20 -14 0 7 -9 22 -20
35 -10 13 -19 20 -19 14z" 
stroke="black" stroke-width="20" />
<path d="M3420 2461 c16 -31 32 -36 18 -7 -6 14 -15 26 -20 26 -5 0 -4 -9 2
-19z" 
stroke="black" stroke-width="20" />
<path d="M3470 2374 c0 -5 7 -19 15 -30 8 -10 15 -14 15 -8 0 5 -7 19 -15 30
-8 10 -15 14 -15 8z" 
stroke="black" stroke-width="20" />
<path d="M3521 2270 c0 -8 4 -24 9 -35 5 -13 9 -14 9 -5 0 8 -4 24 -9 35 -5
13 -9 14 -9 5z" 
stroke="black" stroke-width="20" />
<path d="M3552 2140 c0 -19 2 -27 5 -17 2 9 2 25 0 35 -3 9 -5 1 -5 -18z" stroke="black" stroke-width="20" />
</g>
</svg>
