<?xml version="1.0" standalone="no"?>
<!DOCTYPE svg PUBLIC "-//W3C//DTD SVG 20010904//EN"
 "http://www.w3.org/TR/2001/REC-SVG-20010904/DTD/svg10.dtd">
<svg version="1.0" xmlns="http://www.w3.org/2000/svg"
 width="1562.000000pt" height="1617.000000pt" viewBox="0 0 1562.000000 1617.000000"
 preserveAspectRatio="xMidYMid meet">

<g transform="translate(0.000000,1617.000000) scale(0.100000,-0.100000)"
fill="#FFFFFF" stroke="none">
<path d="M11740 15965 c-186 -31 -367 -104 -517 -207 -98 -67 -234 -202 -302
-298 -97 -138 -174 -313 -211 -482 -12 -53 -16 -58 -44 -63 -17 -2 -470 -27
-1006 -55 -1721 -89 -2111 -109 -2295 -120 -99 -6 -785 -42 -1525 -80 -740
-38 -1428 -74 -1530 -80 -528 -30 -924 -49 -930 -45 -4 3 -11 16 -14 30 -4 14
-25 63 -47 109 -173 354 -542 572 -934 553 -474 -23 -858 -363 -940 -832 -66
-383 108 -778 439 -996 36 -24 66 -48 66 -54 0 -5 -175 -707 -388 -1560 l-388
-1550 -65 -7 c-157 -18 -253 -46 -374 -106 -297 -148 -499 -430 -546 -761 -28
-196 19 -439 119 -616 156 -278 444 -469 757 -504 42 -5 78 -11 79 -12 6 -7
576 -2583 576 -2601 0 -10 -15 -25 -32 -34 -67 -34 -157 -106 -229 -182 -87
-90 -127 -146 -174 -240 -204 -415 -99 -914 255 -1206 178 -148 365 -221 595
-233 178 -9 333 25 500 111 44 22 83 42 86 44 7 3 30 -17 324 -288 33 -31 85
-79 115 -106 220 -202 350 -321 445 -409 61 -56 254 -233 430 -394 176 -162
321 -299 323 -305 1 -7 -18 -54 -44 -105 -54 -110 -85 -198 -111 -313 -16 -72
-18 -132 -18 -448 l0 -365 28 -47 c31 -53 79 -94 134 -114 56 -19 3610 -20
3665 0 56 20 114 71 140 124 22 44 23 61 28 284 l5 237 45 52 c42 50 2056
2355 2214 2535 39 44 95 108 125 143 l55 62 1640 -1639 c903 -902 1663 -1654
1689 -1672 67 -44 201 -105 267 -120 30 -7 114 -13 185 -14 121 0 137 2 228
33 60 20 95 37 91 43 -4 7 -2 8 4 4 29 -18 188 96 265 189 187 226 236 525
131 792 -63 160 -22 117 -1798 1893 -916 916 -1666 1667 -1666 1670 0 4 643
741 1022 1171 31 35 181 207 334 382 l277 317 837 0 c942 0 897 -3 975 75 71
71 75 93 75 454 0 332 -8 416 -50 571 -28 98 -105 260 -172 357 -69 103 -226
257 -331 327 -124 82 -298 158 -417 181 -19 4 -38 9 -42 12 -4 2 14 36 41 76
135 200 205 407 217 642 14 271 -60 530 -217 763 -66 97 -232 262 -326 325
-263 174 -578 248 -872 203 -58 -9 -108 -13 -112 -9 -4 5 -59 123 -123 263
l-115 255 542 5 542 5 48 23 c26 13 60 40 77 60 56 69 60 95 60 436 0 415 -20
542 -116 745 -117 249 -304 448 -538 576 -93 50 -214 97 -301 115 -33 8 -62
15 -64 16 -2 2 17 32 42 67 61 85 139 243 172 347 109 348 53 733 -153 1045
-160 244 -424 439 -697 516 -167 47 -379 61 -535 34z m338 -501 c390 -80 654
-455 593 -843 -40 -258 -218 -487 -454 -583 -299 -122 -615 -49 -840 192 -122
132 -183 278 -193 465 -15 265 110 510 337 661 165 109 364 148 557 108z
m-9546 -745 c185 -39 348 -202 387 -387 74 -356 -251 -671 -608 -587 -90 22
-155 59 -232 135 -138 136 -183 329 -119 514 81 235 328 376 572 325z m8218
-385 c34 -100 89 -209 151 -301 27 -40 49 -75 49 -78 0 -3 -8 -5 -19 -5 -37 0
-197 -52 -280 -91 -188 -88 -386 -255 -499 -422 -78 -113 -149 -269 -184 -404
-30 -116 -31 -123 -37 -427 l-6 -310 -210 -168 c-115 -92 -212 -168 -215 -168
-3 0 -39 30 -80 67 -607 534 -1308 845 -2110 935 -173 19 -621 16 -800 -5
-662 -80 -1286 -327 -1799 -710 l-94 -71 -50 55 c-102 109 -193 209 -244 266
-75 83 -599 667 -844 940 -115 127 -209 235 -209 239 0 5 20 46 44 93 43 85
63 135 85 218 l11 41 63 6 c34 4 240 15 457 26 468 24 1108 57 2020 105 366
20 922 49 1235 65 314 17 698 37 855 45 157 8 587 31 955 50 1051 55 1606 85
1660 88 28 2 54 3 59 2 5 -1 22 -37 36 -81z m2120 -876 c179 -54 325 -156 421
-296 105 -152 139 -278 139 -522 l0 -160 -1500 0 -1500 0 0 160 c0 233 31 361
120 495 115 173 307 301 505 334 27 5 435 8 905 7 764 -1 861 -3 910 -18z
m-9958 -136 c7 -11 51 -61 98 -113 118 -130 267 -294 320 -355 127 -142 526
-583 616 -679 56 -60 116 -128 132 -150 16 -22 36 -46 46 -54 9 -8 39 -40 67
-72 l51 -59 -72 -77 c-146 -156 -321 -389 -440 -585 -339 -558 -519 -1153
-546 -1804 -7 -161 -8 -166 -28 -161 -12 2 -240 53 -509 113 l-488 109 -10 40
c-30 115 -94 250 -162 341 -63 83 -190 202 -265 248 -34 22 -62 44 -62 50 0 6
175 708 388 1561 l388 1550 90 11 c109 14 230 46 292 79 57 29 77 31 94 7z
m4413 -866 c289 -38 564 -109 830 -216 101 -40 373 -176 451 -226 426 -270
737 -562 997 -939 196 -283 357 -624 453 -957 85 -297 118 -537 118 -878 1
-259 -8 -368 -44 -575 -145 -813 -594 -1541 -1255 -2034 -177 -132 -297 -207
-484 -301 -447 -224 -865 -330 -1366 -346 -455 -15 -912 68 -1335 243 -188 78
-568 281 -600 322 -3 3 -41 33 -85 65 -304 226 -561 495 -771 807 -501 743
-669 1638 -473 2523 129 582 425 1125 850 1557 274 279 533 467 875 638 348
173 722 283 1089 320 61 6 126 13 145 15 73 9 500 -4 605 -18z m4950 -841 c91
-198 164 -365 165 -371 0 -7 -32 -37 -71 -69 -39 -31 -106 -99 -148 -151 -274
-330 -360 -773 -229 -1174 28 -86 105 -240 162 -323 25 -37 46 -69 46 -72 0
-3 -11 -5 -24 -5 -44 0 -239 -70 -326 -117 -170 -92 -329 -231 -432 -380 -29
-40 -55 -73 -59 -73 -10 0 -572 98 -634 110 l-50 10 0 253 c-1 272 -16 435
-61 672 -109 566 -336 1081 -676 1537 -48 65 -88 122 -88 126 0 5 51 49 112
98 62 49 122 96 133 106 11 9 68 55 127 102 l108 86 712 2 c392 2 793 1 891
-2 l178 -5 164 -360z m1099 -660 c66 -18 192 -79 246 -120 284 -212 385 -574
250 -897 -39 -96 -97 -175 -192 -263 -196 -182 -481 -241 -743 -153 -188 63
-376 240 -449 424 -121 301 -40 634 204 849 90 80 213 142 322 164 29 6 62 13
73 15 39 10 231 -4 289 -19z m-12092 -1236 c90 -19 177 -67 251 -140 71 -71
105 -130 132 -234 90 -347 -232 -678 -587 -604 -76 16 -196 82 -250 137 -108
110 -156 243 -144 399 5 70 13 99 46 167 103 213 324 322 552 275z m12793
-754 c307 -64 545 -310 594 -616 6 -35 11 -133 11 -216 l0 -153 -1501 0 -1501
0 5 193 c5 214 15 264 75 387 103 211 317 371 545 409 28 5 422 9 875 10 705
1 834 -1 897 -14z m-11560 -121 c187 -42 423 -95 524 -118 l184 -41 24 -130
c244 -1343 1209 -2451 2513 -2884 114 -38 376 -107 443 -117 39 -5 47 -10 47
-28 0 -11 -13 -133 -30 -271 -16 -137 -30 -255 -30 -261 0 -7 -37 -14 -97 -18
-169 -12 -313 -52 -468 -128 -247 -123 -441 -319 -566 -573 -199 -407 -165
-860 93 -1243 27 -41 48 -74 46 -76 -1 -1 -42 -11 -90 -23 -111 -28 -217 -72
-318 -133 l-80 -49 -433 397 c-238 218 -458 420 -489 447 -66 60 -649 597
-695 640 l-32 30 34 77 c218 489 -5 1065 -501 1294 -86 40 -193 70 -301 83
-41 5 -76 11 -78 13 -1 1 -133 589 -292 1306 l-290 1304 26 15 c131 79 240
174 318 277 44 58 133 227 146 276 5 18 10 21 29 16 13 -3 176 -40 363 -82z
m8395 -394 c156 -28 285 -50 285 -50 1 0 -2 -24 -6 -52 -4 -29 -8 -188 -8
-354 -1 -345 3 -368 74 -439 76 -77 59 -75 752 -75 337 0 613 -3 613 -6 0 -3
-94 -112 -208 -242 -114 -130 -401 -457 -636 -727 -236 -269 -439 -501 -452
-515 l-24 -25 -610 610 c-336 336 -610 613 -610 618 0 4 35 65 77 135 178 294
330 667 413 1010 39 158 40 162 48 162 4 0 135 -23 292 -50z m1302 -4107
c2394 -2395 2437 -2439 2452 -2492 30 -105 12 -199 -54 -273 -53 -60 -124 -91
-210 -91 -131 0 76 -198 -2594 2472 l-2428 2428 194 195 c106 108 195 196 198
197 3 0 1102 -1096 2442 -2436z m-2590 1090 l648 -648 -795 -910 c-437 -500
-837 -957 -888 -1015 -52 -58 -142 -161 -201 -230 -59 -69 -127 -147 -151
-175 -24 -27 -72 -83 -107 -122 -34 -40 -65 -73 -68 -73 -3 0 -18 28 -35 62
-67 136 -214 306 -363 416 -103 76 -260 154 -382 187 -52 15 -101 28 -108 30
-8 3 5 30 37 77 257 379 291 839 91 1243 -121 245 -298 430 -535 556 -44 23
-81 43 -83 44 -2 2 15 152 53 475 8 69 15 127 15 130 0 3 105 5 233 6 459 1
870 82 1332 261 132 51 414 192 535 266 58 36 110 66 115 66 6 1 301 -290 657
-646z m-7340 -214 c91 -19 175 -65 247 -138 201 -200 202 -503 2 -701 -280
-278 -737 -149 -836 235 -42 166 7 339 134 466 123 122 288 172 453 138z
m4046 -755 c294 -60 525 -293 587 -590 82 -397 -184 -795 -587 -878 -402 -83
-798 181 -883 589 -71 344 121 700 450 838 52 21 82 29 190 51 49 9 172 5 243
-10z m746 -1999 c245 -51 456 -223 555 -454 36 -84 56 -235 53 -393 l-3 -138
-1499 0 -1500 0 0 160 c0 105 5 186 15 235 62 298 288 525 588 590 97 21 1689
21 1791 0z"/>
<path d="M6745 11466 c-136 -22 -235 -54 -361 -116 -146 -71 -254 -151 -362
-265 -100 -107 -157 -191 -221 -325 -187 -394 -154 -848 90 -1214 21 -32 39
-59 39 -61 0 -1 -39 -5 -86 -9 -591 -45 -1063 -484 -1149 -1067 -13 -83 -15
-175 -13 -430 l3 -324 28 -47 c15 -26 42 -59 60 -72 78 -60 -66 -56 2156 -56
2287 0 2095 -7 2176 75 71 71 75 93 75 449 0 355 -10 449 -64 611 -38 112 -79
199 -134 285 -74 115 -199 248 -297 317 -27 19 -70 48 -93 65 -64 45 -253 125
-360 153 -51 14 -138 29 -194 34 -55 5 -102 12 -104 14 -2 2 16 34 41 71 240
359 270 837 75 1226 -65 131 -129 220 -240 331 -182 183 -382 291 -635 344
-106 23 -327 28 -430 11z m333 -502 c228 -47 422 -196 524 -404 48 -99 67
-174 74 -295 16 -265 -112 -513 -342 -665 -110 -72 -220 -107 -364 -117 -262
-16 -515 112 -665 338 -78 116 -113 222 -122 369 -20 307 171 612 457 730 59
24 92 33 195 54 49 9 173 5 243 -10z m897 -1994 c28 -4 86 -13 130 -20 185
-29 388 -184 483 -368 73 -140 84 -192 90 -409 l4 -193 -1752 0 -1752 0 4 193
c4 186 5 195 38 290 18 54 51 126 73 160 84 130 221 246 354 300 55 22 86 31
188 51 39 7 2091 4 2140 -4z"/>
</g>
</svg>
